<?xml version="1.0" encoding="UTF-8"?>
<svg xmlns="http://www.w3.org/2000/svg" width="960" height="520" viewBox="0 0 960 520">
<rect x="0" y="0" width="960" height="520" fill="white"/>
<style>
        .title{font:600 18px sans-serif;fill:#0f172a}
        .axis{stroke:#334155;stroke-width:1}
        .grid{stroke:#e2e8f0;stroke-width:1}
        .tick{font:12px sans-serif;fill:#334155}
        .label{font:13px sans-serif;fill:#0f172a}
    </style>
<text class="title" x="90" y="30">TSV Sensitivity (SRAM 3D fine, 65nm, R=1.0): TSV Dynamic Energy</text>
<line class="axis" x1="90" y1="410" x2="930" y2="410"/>
<line class="axis" x1="90" y1="410" x2="90" y2="55"/>
<line class="grid" x1="90" y1="410" x2="930" y2="410"/>
<text class="tick" x="80" y="414" text-anchor="end">0</text>
<line class="grid" x1="90" y1="339" x2="930" y2="339"/>
<text class="tick" x="80" y="343" text-anchor="end">0.027</text>
<line class="grid" x1="90" y1="268" x2="930" y2="268"/>
<text class="tick" x="80" y="272" text-anchor="end">0.055</text>
<line class="grid" x1="90" y1="197" x2="930" y2="197"/>
<text class="tick" x="80" y="201" text-anchor="end">0.082</text>
<line class="grid" x1="90" y1="126" x2="930" y2="126"/>
<text class="tick" x="80" y="130" text-anchor="end">0.11</text>
<line class="grid" x1="90" y1="55" x2="930" y2="55"/>
<text class="tick" x="80" y="59" text-anchor="end">0.137</text>
<rect x="102" y="93.04" width="402" height="316.96" fill="#2563eb"/>
<text class="tick" x="303" y="428" text-anchor="middle">Worst</text>
<rect x="516" y="235.12" width="402" height="174.88" fill="#16a34a"/>
<text class="tick" x="717" y="428" text-anchor="middle">Avg</text>
<text class="label" x="510" y="500" text-anchor="middle">Hop Model</text>
<text class="label" x="20" y="232.5" text-anchor="middle" transform="rotate(-90 20 232.5)">Data TSV Dynamic Energy (nJ/access)</text>
</svg>

